<svg width="24" height="24" viewBox="0 0 24 24" fill="none" xmlns="http://www.w3.org/2000/svg">
<path d="M11.0208 17.5057C11.1222 17.6068 11.2027 17.7269 11.2576 17.8591C11.3125 17.9913 11.3408 18.133 11.3408 18.2762C11.3408 18.4194 11.3125 18.5611 11.2576 18.6933C11.2027 18.8255 11.1222 18.9456 11.0208 19.0467L10.5567 19.5108C10.0641 20.0052 9.47831 20.3972 8.83326 20.6638C8.1882 20.9305 7.49668 21.0666 6.79868 21.0644C5.74752 21.0647 4.71987 20.7533 3.84576 20.1694C2.97164 19.5856 2.29033 18.7556 1.88802 17.7845C1.48572 16.8134 1.38049 15.7447 1.58565 14.7138C1.79082 13.6829 2.29715 12.7359 3.04061 11.9928L6.19046 8.84296C6.86044 8.17308 7.69728 7.69445 8.61437 7.45662C9.53145 7.21878 10.4954 7.23039 11.4065 7.49024C12.3176 7.75009 13.1427 8.24873 13.7963 8.93455C14.45 9.62037 14.9084 10.4684 15.1243 11.3909C15.16 11.5312 15.1674 11.6772 15.146 11.8203C15.1246 11.9635 15.0748 12.1009 14.9996 12.2246C14.9244 12.3483 14.8253 12.4557 14.7081 12.5406C14.5908 12.6255 14.4578 12.6861 14.3168 12.7189C14.1759 12.7518 14.0297 12.7561 13.8871 12.7317C13.7444 12.7074 13.608 12.6547 13.4859 12.577C13.3638 12.4992 13.2585 12.3979 13.1761 12.2789C13.0937 12.1599 13.0358 12.0257 13.0059 11.884C12.8779 11.3395 12.6067 10.839 12.2204 10.4344C11.8341 10.0297 11.3468 9.73558 10.8088 9.58236C10.2708 9.42914 9.70158 9.4224 9.16008 9.56284C8.61859 9.70327 8.12442 9.98579 7.72868 10.3812L4.57882 13.531C4.13976 13.9697 3.84065 14.5288 3.71933 15.1375C3.59801 15.7462 3.65993 16.3772 3.89725 16.9508C4.13458 17.5243 4.53665 18.0145 5.05262 18.3595C5.56859 18.7045 6.17528 18.8888 6.79596 18.889C7.20837 18.8902 7.61692 18.8096 7.99797 18.6518C8.37901 18.494 8.72497 18.2622 9.01581 17.9698L9.479 17.5057C9.58007 17.4042 9.7002 17.3236 9.8325 17.2686C9.9648 17.2137 10.1067 17.1854 10.2499 17.1854C10.3932 17.1854 10.535 17.2137 10.6673 17.2686C10.7996 17.3236 10.9198 17.4042 11.0208 17.5057ZM20.9599 4.49208C19.9629 3.49547 18.611 2.93561 17.2014 2.93561C15.7917 2.93561 14.4398 3.49547 13.4428 4.49208L12.9796 4.95527C12.7753 5.15961 12.6605 5.43675 12.6605 5.72573C12.6605 6.01472 12.7753 6.29186 12.9796 6.4962C13.184 6.70054 13.4611 6.81534 13.7501 6.81534C14.0391 6.81534 14.3162 6.70054 14.5206 6.4962L14.9847 6.03211C15.5737 5.44313 16.3725 5.11224 17.2054 5.11224C18.0384 5.11224 18.8372 5.44313 19.4262 6.03211C20.0152 6.62109 20.3461 7.41992 20.3461 8.25287C20.3461 9.08582 20.0152 9.88465 19.4262 10.4736L16.2709 13.619C15.9801 13.9113 15.6341 14.1431 15.2531 14.3009C14.872 14.4587 14.4635 14.5393 14.051 14.5381C13.3436 14.5376 12.657 14.2981 12.1027 13.8585C11.5484 13.4188 11.1589 12.8049 10.9973 12.1161C10.9319 11.8351 10.7575 11.5915 10.5126 11.439C10.2676 11.2866 9.97213 11.2376 9.69111 11.303C9.41008 11.3684 9.16653 11.5428 9.01405 11.7877C8.86157 12.0327 8.81265 12.3282 8.87804 12.6092C9.15097 13.7757 9.80994 14.8157 10.7481 15.5607C11.6862 16.3057 12.8485 16.7119 14.0465 16.7135H14.051C14.7494 16.7154 15.4412 16.5789 16.0864 16.3117C16.7316 16.0446 17.3174 15.6522 17.81 15.1572L20.9599 12.0073C21.4534 11.5139 21.8449 10.9281 22.112 10.2833C22.3791 9.63861 22.5166 8.94757 22.5166 8.2497C22.5166 7.55182 22.3791 6.86078 22.112 6.21604C21.8449 5.57131 21.4534 4.9855 20.9599 4.49208Z" fill="#6F7177"/>
</svg>
